<svg xmlns="http://www.w3.org/2000/svg" viewBox="0 0 841.9 595.3">
  <g fill="#61DAFB">
    <path d="M666.3 296.5c0 75-23.4 143.8-62.8 201.2-9.7 13.1-20.4 25.2-31.8 36.3-11.4 11-23.1 20.9-35.4 29.7-12.2 8.8-24.8 16.5-37.7 23-12.9 6.5-26.1 12-39.4 16.5-13.4 4.6-27.1 8.1-40.8 10.5-13.8 2.5-27.7 3.8-41.6 3.8-13.9 0-27.7-1.3-41.5-3.8-13.8-2.4-27.5-5.9-40.8-10.5-13.3-4.6-26.5-10-39.4-16.5-12.9-6.5-25.5-14.2-37.7-23-12.3-8.8-24-18.7-35.4-29.7-11.4-11-22.1-23.2-31.8-36.3-39.4-57.3-62.8-126.2-62.8-201.2 0-75 23.4-143.8 62.8-201.2 9.7-13.1 20.4-25.2 31.8-36.3 11.4-11 23.1-20.9 35.4-29.7 12.2-8.8 24.8-16.5 37.7-23 12.9-6.5 26.1-12 39.4-16.5 13.4-4.6 27.1-8.1 40.8-10.5 13.8-2.5 27.7-3.8 41.6-3.8 13.9 0 27.7 1.3 41.5 3.8 13.8 2.4 27.5 5.9 40.8 10.5 13.3 4.6 26.5 10 39.4 16.5 12.9 6.5 25.5 14.2 37.7 23 12.3 8.8 24 18.7 35.4 29.7 11.4 11 22.1 23.2 31.8 36.3 39.4 57.3 62.8 126.2 62.8 201.2z" />
  </g>
</svg>
